<!-- public/google-icon.svg -->
<svg xmlns="http://www.w3.org/2000/svg" viewBox="0 0 48 48" width="24" height="24">
  <path fill="#4285F4" d="M24 9.5c3.04 0 5.8 1.06 7.9 2.8l5.9-5.9C33.22 2.63 28.88.5 24 .5 14.75.5 7.11 6.8 4.32 15h7.98C13.66 10.44 18.47 7 24 7c2.52 0 4.84.88 6.67 2.35l5.87-5.87C32.8 1.81 28.56 0 24 0 13.73 0 5.15 6.54 2.1 15.34l7.2 5.68C10.49 13.32 16.61 9.5 24 9.5z"/>
  <path fill="#34A853" d="M9.29 27.55C8.46 25.67 8 23.63 8 21.5c0-2.13.46-4.17 1.29-6.05L2.1 9.77C.76 12.35 0 15.09 0 18c0 2.91.76 5.65 2.1 8.23l7.19-5.68z"/>
  <path fill="#FBBC05" d="M24 42c-6.47 0-12-4.05-14.18-9.73L2.1 37.68C5.14 44.46 13.16 49.5 24 49.5c4.63 0 8.98-1.33 12.63-3.6l-6.37-4.94C27.89 42.1 26.02 42 24 42z"/>
  <path fill="#EA4335" d="M46.15 24.3c0-1.74-.16-3.42-.46-5H24v9.5h12.46c-1.08 3-3.18 5.52-5.97 7.2l6.4 4.96c3.77-3.5 6.26-8.68 6.26-16.66z"/>
</svg>
